<svg width="95" height="10" viewBox="0 0 95 10" fill="none" xmlns="http://www.w3.org/2000/svg">
<path d="M4.93736 0.182373C4.28897 0.182373 3.64694 0.310082 3.04791 0.558207C2.44888 0.806332 1.90459 1.17001 1.44612 1.62849C0.520184 2.55442 0 3.81026 0 5.11973C0 7.30204 1.41702 9.15355 3.37715 9.81021C3.62402 9.84971 3.70302 9.69666 3.70302 9.56335V8.72893C2.33537 9.02518 2.04406 8.06733 2.04406 8.06733C1.81695 7.4946 1.49602 7.34154 1.49602 7.34154C1.04672 7.03542 1.53058 7.0453 1.53058 7.0453C2.02432 7.07986 2.286 7.55384 2.286 7.55384C2.71555 8.30432 3.44134 8.08214 3.72277 7.96364C3.7672 7.64272 3.89557 7.42547 4.03382 7.30204C2.93773 7.1786 1.78732 6.75399 1.78732 4.87286C1.78732 4.32481 1.97494 3.88539 2.29587 3.53484C2.2465 3.4114 2.07369 2.89792 2.34524 2.23138C2.34524 2.23138 2.75998 2.09807 3.70302 2.73499C4.09307 2.62636 4.51768 2.57205 4.93736 2.57205C5.35703 2.57205 5.78164 2.62636 6.17169 2.73499C7.11473 2.09807 7.52947 2.23138 7.52947 2.23138C7.80102 2.89792 7.62821 3.4114 7.57884 3.53484C7.89977 3.88539 8.08739 4.32481 8.08739 4.87286C8.08739 6.75893 6.93205 7.17367 5.83102 7.2971C6.00876 7.45016 6.17169 7.75134 6.17169 8.21051V9.56335C6.17169 9.69666 6.25069 9.85465 6.5025 9.81021C8.46263 9.14861 9.87471 7.30204 9.87471 5.11973C9.87471 4.47134 9.747 3.82931 9.49888 3.23028C9.25075 2.63126 8.88707 2.08697 8.42859 1.62849C7.97012 1.17001 7.42583 0.806332 6.8268 0.558207C6.22777 0.310082 5.58574 0.182373 4.93736 0.182373Z" fill="white"/>
<path d="M33.1624 6.90577C33.6678 6.90577 34.1525 6.705 34.5099 6.34762C34.8672 5.99025 35.068 5.50554 35.068 5.00013C35.068 4.49472 34.8672 4.01001 34.5099 3.65263C34.1525 3.29526 33.6678 3.09448 33.1624 3.09448C32.657 3.09448 32.1722 3.29526 31.8149 3.65263C31.4575 4.01001 31.2567 4.49472 31.2567 5.00013C31.2567 5.50554 31.4575 5.99025 31.8149 6.34762C32.1722 6.705 32.657 6.90577 33.1624 6.90577Z" stroke="white" stroke-width="0.714617" stroke-linecap="round" stroke-linejoin="round"/>
<path d="M28.8748 6.90575V3.09446C28.8748 2.4627 29.1257 1.85681 29.5724 1.41009C30.0192 0.963368 30.6251 0.712402 31.2568 0.712402H35.0681C35.6999 0.712402 36.3058 0.963368 36.7525 1.41009C37.1992 1.85681 37.4502 2.4627 37.4502 3.09446V6.90575C37.4502 7.53751 37.1992 8.1434 36.7525 8.59012C36.3058 9.03684 35.6999 9.28781 35.0681 9.28781H31.2568C30.6251 9.28781 30.0192 9.03684 29.5724 8.59012C29.1257 8.1434 28.8748 7.53751 28.8748 6.90575Z" stroke="white" stroke-width="0.714617"/>
<path d="M35.7826 2.38654L35.7891 2.37939" stroke="white" stroke-width="0.714617" stroke-linecap="round" stroke-linejoin="round"/>
<path d="M64.7656 0.32251C65.0413 0.32251 65.3057 0.432022 65.5006 0.626956C65.6955 0.821889 65.8051 1.08628 65.8051 1.36195V8.63805C65.8051 8.91373 65.6955 9.17812 65.5006 9.37305C65.3057 9.56799 65.0413 9.6775 64.7656 9.6775H57.4895C57.2138 9.6775 56.9495 9.56799 56.7545 9.37305C56.5596 9.17812 56.4501 8.91373 56.4501 8.63805V1.36195C56.4501 1.08628 56.5596 0.821889 56.7545 0.626956C56.9495 0.432022 57.2138 0.32251 57.4895 0.32251H64.7656ZM64.5058 8.37819V5.62367C64.5058 5.17432 64.3273 4.74337 64.0095 4.42562C63.6918 4.10788 63.2608 3.92938 62.8115 3.92938C62.3697 3.92938 61.8552 4.19963 61.6057 4.60502V4.02812H60.1557V8.37819H61.6057V5.81597C61.6057 5.41578 61.9279 5.08836 62.3281 5.08836C62.5211 5.08836 62.7062 5.16502 62.8426 5.30147C62.9791 5.43792 63.0557 5.62299 63.0557 5.81597V8.37819H64.5058ZM58.4666 3.21216C58.6982 3.21216 58.9202 3.12017 59.084 2.95643C59.2477 2.79268 59.3397 2.5706 59.3397 2.33903C59.3397 1.85569 58.9499 1.4607 58.4666 1.4607C58.2336 1.4607 58.0102 1.55324 57.8455 1.71796C57.6808 1.88268 57.5883 2.10608 57.5883 2.33903C57.5883 2.82237 57.9833 3.21216 58.4666 3.21216ZM59.189 8.37819V4.02812H57.7494V8.37819H59.189Z" fill="white"/>
<g clip-path="url(#clip0_143_251)">
<path d="M89.8051 10C92.5665 10 94.8051 7.76142 94.8051 5C94.8051 2.23858 92.5665 0 89.8051 0C87.0436 0 84.8051 2.23858 84.8051 5C84.8051 7.76142 87.0436 10 89.8051 10Z" fill="white"/>
<path d="M88.976 5.78662L88.8621 6.99687C88.8621 6.99687 88.8144 7.3677 89.1852 6.99687C89.5559 6.62604 89.9108 6.34008 89.9108 6.34008" fill="#1F1F1F"/>
<path d="M88.2003 5.42388L86.98 5.02629C86.98 5.02629 86.8342 4.96713 86.8811 4.83296C86.8908 4.80529 86.9103 4.78175 86.9686 4.74129C87.239 4.55283 91.9731 2.85129 91.9731 2.85129C91.9731 2.85129 92.1067 2.80625 92.1856 2.83621C92.2051 2.84225 92.2226 2.85336 92.2364 2.8684C92.2502 2.88344 92.2598 2.90188 92.2641 2.92183C92.2726 2.95707 92.2762 2.99332 92.2747 3.02954C92.2743 3.06088 92.2705 3.08992 92.2676 3.13546C92.2388 3.60067 91.376 7.07267 91.376 7.07267C91.376 7.07267 91.3244 7.27583 91.1394 7.28279C91.0939 7.28426 91.0487 7.27656 91.0062 7.26015C90.9638 7.24375 90.9252 7.21897 90.8925 7.18729C90.5296 6.87508 89.2751 6.032 88.9979 5.84658C88.9916 5.84232 88.9863 5.83677 88.9824 5.8303C88.9785 5.82383 88.976 5.8166 88.9751 5.80908C88.9712 5.78954 88.9925 5.76533 88.9925 5.76533C88.9925 5.76533 91.1769 3.82367 91.235 3.61983C91.2395 3.60404 91.2225 3.59625 91.1997 3.60317C91.0546 3.65654 88.5395 5.24483 88.2619 5.42013C88.242 5.42617 88.2208 5.42746 88.2003 5.42388Z" fill="black"/>
</g>
<defs>
<clipPath id="clip0_143_251">
<rect width="10" height="10" fill="white" transform="translate(84.8051)"/>
</clipPath>
</defs>
</svg>
