<svg width="59" height="58" viewBox="0 0 59 58" fill="none" xmlns="http://www.w3.org/2000/svg">
<path d="M26.4523 0.878326C13.1374 2.3256 2.4275 13.0355 0.980218 26.061C-0.756516 40.5338 8.21661 52.9804 20.9527 57.0327V50.3753C20.9527 50.3753 19.7948 50.6647 18.3476 50.6647C14.2952 50.6647 12.5585 47.1912 12.269 45.1651C11.9795 44.0072 11.4006 43.1389 10.5323 42.2705C9.66389 41.981 9.37444 41.981 9.37444 41.6916C9.37444 41.1127 10.2428 41.1127 10.5323 41.1127C12.269 41.1127 13.7163 43.1389 14.2952 44.0072C15.7425 46.3229 17.4792 46.9018 18.3476 46.9018C19.5054 46.9018 20.3738 46.6123 20.9527 46.3229C21.2421 44.2967 22.1105 42.2705 23.8472 41.1127C17.1897 39.6654 12.269 35.9025 12.269 29.5344C12.269 26.3504 13.7163 23.1664 15.7425 20.8508C15.453 20.2719 15.1636 18.8246 15.1636 16.7984C15.1636 15.6406 15.1636 13.9038 16.0319 12.1671C16.0319 12.1671 20.0843 12.1671 24.1367 15.93C25.584 15.3511 27.6102 15.0617 29.6363 15.0617C31.6625 15.0617 33.6887 15.3511 35.4255 15.93C39.1884 12.1671 43.5302 12.1671 43.5302 12.1671C44.1091 13.9038 44.1091 15.6406 44.1091 16.7984C44.1091 19.114 43.8197 20.2719 43.5302 20.8508C45.5564 23.1664 47.0037 26.061 47.0037 29.5344C47.0037 35.9025 42.0829 39.6654 35.4255 41.1127C37.1622 42.56 38.32 45.1651 38.32 47.7702V57.3222C50.1877 53.5593 58.5819 42.56 58.5819 29.8239C58.5819 12.4566 43.8197 -1.14786 26.4523 0.878326Z" fill="white"/>
</svg>
