<svg width="149" height="48" viewBox="0 0 149 48" fill="none" xmlns="http://www.w3.org/2000/svg">
<path d="M4.56 19V7.64H0.08V5H12.28V7.64H7.8V19H4.56ZM19.1433 8.08C19.9966 8.08 20.7566 8.25333 21.4233 8.6C22.1033 8.93333 22.6366 9.45333 23.0233 10.16C23.4099 10.8533 23.6033 11.7467 23.6033 12.84V19H20.4833V13.32C20.4833 12.4533 20.2899 11.8133 19.9033 11.4C19.5299 10.9867 18.9966 10.78 18.3033 10.78C17.8099 10.78 17.3633 10.8867 16.9633 11.1C16.5766 11.3 16.2699 11.6133 16.0433 12.04C15.8299 12.4667 15.7233 13.0133 15.7233 13.68V19H12.6033V4.16H15.7233V11.22L15.0233 10.32C15.4099 9.6 15.9633 9.04667 16.6833 8.66C17.4033 8.27333 18.2233 8.08 19.1433 8.08ZM31.8314 19V16.9L31.6314 16.44V12.68C31.6314 12.0133 31.4247 11.4933 31.0114 11.12C30.6114 10.7467 29.9914 10.56 29.1514 10.56C28.5781 10.56 28.0114 10.6533 27.4514 10.84C26.9047 11.0133 26.4381 11.2533 26.0514 11.56L24.9314 9.38C25.5181 8.96667 26.2247 8.64667 27.0514 8.42C27.8781 8.19333 28.7181 8.08 29.5714 8.08C31.2114 8.08 32.4847 8.46667 33.3914 9.24C34.2981 10.0133 34.7514 11.22 34.7514 12.86V19H31.8314ZM28.5514 19.16C27.7114 19.16 26.9914 19.02 26.3914 18.74C25.7914 18.4467 25.3314 18.0533 25.0114 17.56C24.6914 17.0667 24.5314 16.5133 24.5314 15.9C24.5314 15.26 24.6847 14.7 24.9914 14.22C25.3114 13.74 25.8114 13.3667 26.4914 13.1C27.1714 12.82 28.0581 12.68 29.1514 12.68H32.0114V14.5H29.4914C28.7581 14.5 28.2514 14.62 27.9714 14.86C27.7047 15.1 27.5714 15.4 27.5714 15.76C27.5714 16.16 27.7247 16.48 28.0314 16.72C28.3514 16.9467 28.7847 17.06 29.3314 17.06C29.8514 17.06 30.3181 16.94 30.7314 16.7C31.1447 16.4467 31.4447 16.08 31.6314 15.6L32.1114 17.04C31.8847 17.7333 31.4714 18.26 30.8714 18.62C30.2714 18.98 29.4981 19.16 28.5514 19.16ZM36.3752 19V4.16H39.4952V19H36.3752ZM47.7308 8.08C48.5841 8.08 49.3441 8.25333 50.0108 8.6C50.6908 8.93333 51.2241 9.45333 51.6108 10.16C51.9974 10.8533 52.1908 11.7467 52.1908 12.84V19H49.0708V13.32C49.0708 12.4533 48.8774 11.8133 48.4908 11.4C48.1174 10.9867 47.5841 10.78 46.8908 10.78C46.3974 10.78 45.9508 10.8867 45.5508 11.1C45.1641 11.3 44.8574 11.6133 44.6308 12.04C44.4174 12.4667 44.3108 13.0133 44.3108 13.68V19H41.1908V4.16H44.3108V11.22L43.6108 10.32C43.9974 9.6 44.5508 9.04667 45.2708 8.66C45.9908 8.27333 46.8108 8.08 47.7308 8.08ZM60.4189 19V16.9L60.2189 16.44V12.68C60.2189 12.0133 60.0122 11.4933 59.5989 11.12C59.1989 10.7467 58.5789 10.56 57.7389 10.56C57.1656 10.56 56.5989 10.6533 56.0389 10.84C55.4922 11.0133 55.0256 11.2533 54.6389 11.56L53.5189 9.38C54.1056 8.96667 54.8122 8.64667 55.6389 8.42C56.4656 8.19333 57.3056 8.08 58.1589 8.08C59.7989 8.08 61.0722 8.46667 61.9789 9.24C62.8856 10.0133 63.3389 11.22 63.3389 12.86V19H60.4189ZM57.1389 19.16C56.2989 19.16 55.5789 19.02 54.9789 18.74C54.3789 18.4467 53.9189 18.0533 53.5989 17.56C53.2789 17.0667 53.1189 16.5133 53.1189 15.9C53.1189 15.26 53.2722 14.7 53.5789 14.22C53.8989 13.74 54.3989 13.3667 55.0789 13.1C55.7589 12.82 56.6456 12.68 57.7389 12.68H60.5989V14.5H58.0789C57.3456 14.5 56.8389 14.62 56.5589 14.86C56.2922 15.1 56.1589 15.4 56.1589 15.76C56.1589 16.16 56.3122 16.48 56.6189 16.72C56.9389 16.9467 57.3722 17.06 57.9189 17.06C58.4389 17.06 58.9056 16.94 59.3189 16.7C59.7322 16.4467 60.0322 16.08 60.2189 15.6L60.6989 17.04C60.4722 17.7333 60.0589 18.26 59.4589 18.62C58.8589 18.98 58.0856 19.16 57.1389 19.16ZM71.5027 8.08C72.356 8.08 73.116 8.25333 73.7827 8.6C74.4627 8.93333 74.996 9.45333 75.3827 10.16C75.7693 10.8533 75.9627 11.7467 75.9627 12.84V19H72.8427V13.32C72.8427 12.4533 72.6493 11.8133 72.2627 11.4C71.8893 10.9867 71.356 10.78 70.6627 10.78C70.1693 10.78 69.7227 10.8867 69.3227 11.1C68.936 11.3 68.6293 11.6133 68.4027 12.04C68.1893 12.4667 68.0827 13.0133 68.0827 13.68V19H64.9627V4.16H68.0827V11.22L67.3827 10.32C67.7693 9.6 68.3227 9.04667 69.0427 8.66C69.7627 8.27333 70.5827 8.08 71.5027 8.08Z" fill="white"/>
<path d="M6.40539 43.16C5.33872 43.16 4.31872 43 3.34539 42.68C2.37205 42.3467 1.60539 41.92 1.04539 41.4L1.78539 39.84C2.31872 40.3067 2.99872 40.6933 3.82539 41C4.65205 41.3067 5.51205 41.46 6.40539 41.46C7.21872 41.46 7.87872 41.3667 8.38539 41.18C8.89205 40.9933 9.26539 40.74 9.50539 40.42C9.74539 40.0867 9.86539 39.7133 9.86539 39.3C9.86539 38.82 9.70539 38.4333 9.38539 38.14C9.07872 37.8467 8.67205 37.6133 8.16539 37.44C7.67205 37.2533 7.12539 37.0933 6.52539 36.96C5.92539 36.8267 5.31872 36.6733 4.70539 36.5C4.10539 36.3133 3.55205 36.08 3.04539 35.8C2.55205 35.52 2.15205 35.1467 1.84539 34.68C1.53872 34.2 1.38539 33.5867 1.38539 32.84C1.38539 32.12 1.57205 31.46 1.94539 30.86C2.33205 30.2467 2.91872 29.76 3.70539 29.4C4.50539 29.0267 5.51872 28.84 6.74539 28.84C7.55872 28.84 8.36539 28.9467 9.16539 29.16C9.96539 29.3733 10.6587 29.68 11.2454 30.08L10.5854 31.68C9.98539 31.28 9.35205 30.9933 8.68539 30.82C8.01872 30.6333 7.37205 30.54 6.74539 30.54C5.95872 30.54 5.31205 30.64 4.80539 30.84C4.29872 31.04 3.92539 31.3067 3.68539 31.64C3.45872 31.9733 3.34539 32.3467 3.34539 32.76C3.34539 33.2533 3.49872 33.6467 3.80539 33.94C4.12539 34.2333 4.53205 34.4667 5.02539 34.64C5.53205 34.8133 6.08539 34.9733 6.68539 35.12C7.28539 35.2533 7.88539 35.4067 8.48539 35.58C9.09872 35.7533 9.65205 35.98 10.1454 36.26C10.6521 36.54 11.0587 36.9133 11.3654 37.38C11.6721 37.8467 11.8254 38.4467 11.8254 39.18C11.8254 39.8867 11.6321 40.5467 11.2454 41.16C10.8587 41.76 10.2587 42.2467 9.44539 42.62C8.64539 42.98 7.63205 43.16 6.40539 43.16ZM18.9273 32.3C19.7939 32.3 20.5539 32.4667 21.2073 32.8C21.8739 33.1333 22.3939 33.64 22.7673 34.32C23.1406 35 23.3273 35.86 23.3273 36.9V43H21.4073V37.12C21.4073 36.0933 21.1539 35.32 20.6473 34.8C20.1539 34.28 19.4539 34.02 18.5473 34.02C17.8673 34.02 17.2739 34.1533 16.7673 34.42C16.2606 34.6867 15.8673 35.08 15.5873 35.6C15.3206 36.12 15.1873 36.7667 15.1873 37.54V43H13.2673V28.16H15.1873V35.26L14.8073 34.5C15.1539 33.8067 15.6873 33.2667 16.4073 32.88C17.1273 32.4933 17.9673 32.3 18.9273 32.3ZM32.2605 43V40.76L32.1605 40.34V36.52C32.1605 35.7067 31.9205 35.08 31.4405 34.64C30.9739 34.1867 30.2672 33.96 29.3205 33.96C28.6939 33.96 28.0805 34.0667 27.4805 34.28C26.8805 34.48 26.3739 34.7533 25.9605 35.1L25.1605 33.66C25.7072 33.22 26.3605 32.8867 27.1205 32.66C27.8939 32.42 28.7005 32.3 29.5405 32.3C30.9939 32.3 32.1139 32.6533 32.9005 33.36C33.6872 34.0667 34.0805 35.1467 34.0805 36.6V43H32.2605ZM28.7805 43.12C27.9939 43.12 27.3005 42.9867 26.7005 42.72C26.1139 42.4533 25.6605 42.0867 25.3405 41.62C25.0205 41.14 24.8605 40.6 24.8605 40C24.8605 39.4267 24.9939 38.9067 25.2605 38.44C25.5405 37.9733 25.9872 37.6 26.6005 37.32C27.2272 37.04 28.0672 36.9 29.1205 36.9H32.4805V38.28H29.2005C28.2405 38.28 27.5939 38.44 27.2605 38.76C26.9272 39.08 26.7605 39.4667 26.7605 39.92C26.7605 40.44 26.9672 40.86 27.3805 41.18C27.7939 41.4867 28.3672 41.64 29.1005 41.64C29.8205 41.64 30.4472 41.48 30.9805 41.16C31.5272 40.84 31.9205 40.3733 32.1605 39.76L32.5405 41.08C32.2872 41.7067 31.8405 42.2067 31.2005 42.58C30.5605 42.94 29.7539 43.12 28.7805 43.12ZM36.7137 43V31.46C36.7137 30.42 37.0137 29.5933 37.6137 28.98C38.227 28.3533 39.0937 28.04 40.2137 28.04C40.627 28.04 41.0203 28.0933 41.3937 28.2C41.7803 28.2933 42.107 28.4467 42.3737 28.66L41.7937 30.12C41.5937 29.96 41.367 29.84 41.1137 29.76C40.8603 29.6667 40.5937 29.62 40.3137 29.62C39.7537 29.62 39.327 29.78 39.0337 30.1C38.7403 30.4067 38.5937 30.8667 38.5937 31.48V32.9L38.6337 33.78V43H36.7137ZM34.9137 33.98V32.4H41.6737V33.98H34.9137ZM43.4937 43V32.4H45.4137V43H43.4937ZM44.4537 30.36C44.0803 30.36 43.767 30.24 43.5137 30C43.2737 29.76 43.1537 29.4667 43.1537 29.12C43.1537 28.76 43.2737 28.46 43.5137 28.22C43.767 27.98 44.0803 27.86 44.4537 27.86C44.827 27.86 45.1337 27.98 45.3737 28.22C45.627 28.4467 45.7537 28.7333 45.7537 29.08C45.7537 29.44 45.6337 29.7467 45.3937 30C45.1537 30.24 44.8403 30.36 44.4537 30.36ZM48.3304 47C47.8237 47 47.3304 46.9133 46.8504 46.74C46.3704 46.58 45.9571 46.34 45.6104 46.02L46.4304 44.58C46.6971 44.8333 46.9904 45.0267 47.3104 45.16C47.6304 45.2933 47.9704 45.36 48.3304 45.36C48.7971 45.36 49.1837 45.24 49.4904 45C49.7971 44.76 50.0837 44.3333 50.3504 43.72L51.0104 42.26L51.2104 42.02L55.3704 32.4H57.2504L52.1104 44.06C51.8037 44.8067 51.4571 45.3933 51.0704 45.82C50.6971 46.2467 50.2837 46.5467 49.8304 46.72C49.3771 46.9067 48.8771 47 48.3304 47ZM50.8504 43.34L46.0104 32.4H48.0104L52.1304 41.84L50.8504 43.34ZM62.3023 43.12C61.3956 43.12 60.5956 42.9533 59.9023 42.62C59.2223 42.2867 58.6889 41.78 58.3023 41.1C57.9289 40.4067 57.7423 39.54 57.7423 38.5V32.4H59.6623V38.28C59.6623 39.32 59.9089 40.1 60.4023 40.62C60.9089 41.14 61.6156 41.4 62.5223 41.4C63.1889 41.4 63.7689 41.2667 64.2623 41C64.7556 40.72 65.1356 40.32 65.4023 39.8C65.6689 39.2667 65.8023 38.6267 65.8023 37.88V32.4H67.7223V43H65.9023V40.14L66.2023 40.9C65.8556 41.6067 65.3356 42.1533 64.6423 42.54C63.9489 42.9267 63.1689 43.12 62.3023 43.12ZM70.1774 43V32.4H72.0174V35.28L71.8374 34.56C72.1308 33.8267 72.6241 33.2667 73.3174 32.88C74.0108 32.4933 74.8641 32.3 75.8774 32.3V34.16C75.7974 34.1467 75.7174 34.14 75.6374 34.14C75.5708 34.14 75.5041 34.14 75.4374 34.14C74.4108 34.14 73.5974 34.4467 72.9974 35.06C72.3974 35.6733 72.0974 36.56 72.0974 37.72V43H70.1774ZM77.0438 43V32.4H78.8838V35.28L78.7038 34.56C78.9972 33.8267 79.4905 33.2667 80.1838 32.88C80.8772 32.4933 81.7305 32.3 82.7438 32.3V34.16C82.6638 34.1467 82.5838 34.14 82.5038 34.14C82.4372 34.14 82.3705 34.14 82.3038 34.14C81.2772 34.14 80.4638 34.4467 79.8638 35.06C79.2638 35.6733 78.9638 36.56 78.9638 37.72V43H77.0438ZM89.709 43V40.76L89.609 40.34V36.52C89.609 35.7067 89.369 35.08 88.889 34.64C88.4223 34.1867 87.7156 33.96 86.769 33.96C86.1423 33.96 85.529 34.0667 84.929 34.28C84.329 34.48 83.8223 34.7533 83.409 35.1L82.609 33.66C83.1556 33.22 83.809 32.8867 84.569 32.66C85.3423 32.42 86.149 32.3 86.989 32.3C88.4423 32.3 89.5623 32.6533 90.349 33.36C91.1357 34.0667 91.529 35.1467 91.529 36.6V43H89.709ZM86.229 43.12C85.4423 43.12 84.749 42.9867 84.149 42.72C83.5623 42.4533 83.109 42.0867 82.789 41.62C82.469 41.14 82.309 40.6 82.309 40C82.309 39.4267 82.4423 38.9067 82.709 38.44C82.989 37.9733 83.4356 37.6 84.049 37.32C84.6756 37.04 85.5156 36.9 86.569 36.9H89.929V38.28H86.649C85.689 38.28 85.0423 38.44 84.709 38.76C84.3756 39.08 84.209 39.4667 84.209 39.92C84.209 40.44 84.4156 40.86 84.829 41.18C85.2423 41.4867 85.8156 41.64 86.549 41.64C87.269 41.64 87.8956 41.48 88.429 41.16C88.9756 40.84 89.369 40.3733 89.609 39.76L89.989 41.08C89.7356 41.7067 89.289 42.2067 88.649 42.58C88.009 42.94 87.2023 43.12 86.229 43.12ZM99.5421 32.3C100.409 32.3 101.169 32.4667 101.822 32.8C102.489 33.1333 103.009 33.64 103.382 34.32C103.755 35 103.942 35.86 103.942 36.9V43H102.022V37.12C102.022 36.0933 101.769 35.32 101.262 34.8C100.769 34.28 100.069 34.02 99.1621 34.02C98.4821 34.02 97.8888 34.1533 97.3821 34.42C96.8754 34.6867 96.4821 35.08 96.2021 35.6C95.9354 36.12 95.8021 36.7667 95.8021 37.54V43H93.8821V28.16H95.8021V35.26L95.4221 34.5C95.7688 33.8067 96.3021 33.2667 97.0221 32.88C97.7421 32.4933 98.5821 32.3 99.5421 32.3ZM119.555 32.3C120.409 32.3 121.162 32.4667 121.815 32.8C122.469 33.1333 122.975 33.64 123.335 34.32C123.709 35 123.895 35.86 123.895 36.9V43H121.975V37.12C121.975 36.0933 121.735 35.32 121.255 34.8C120.775 34.28 120.102 34.02 119.235 34.02C118.595 34.02 118.035 34.1533 117.555 34.42C117.075 34.6867 116.702 35.08 116.435 35.6C116.182 36.12 116.055 36.7667 116.055 37.54V43H114.135V37.12C114.135 36.0933 113.895 35.32 113.415 34.8C112.949 34.28 112.275 34.02 111.395 34.02C110.769 34.02 110.215 34.1533 109.735 34.42C109.255 34.6867 108.882 35.08 108.615 35.6C108.349 36.12 108.215 36.7667 108.215 37.54V43H106.295V32.4H108.135V35.22L107.835 34.5C108.169 33.8067 108.682 33.2667 109.375 32.88C110.069 32.4933 110.875 32.3 111.795 32.3C112.809 32.3 113.682 32.5533 114.415 33.06C115.149 33.5533 115.629 34.3067 115.855 35.32L115.075 35C115.395 34.1867 115.955 33.5333 116.755 33.04C117.555 32.5467 118.489 32.3 119.555 32.3ZM132.808 43V40.76L132.708 40.34V36.52C132.708 35.7067 132.468 35.08 131.988 34.64C131.522 34.1867 130.815 33.96 129.868 33.96C129.242 33.96 128.628 34.0667 128.028 34.28C127.428 34.48 126.922 34.7533 126.508 35.1L125.708 33.66C126.255 33.22 126.908 32.8867 127.668 32.66C128.442 32.42 129.248 32.3 130.088 32.3C131.542 32.3 132.662 32.6533 133.448 33.36C134.235 34.0667 134.628 35.1467 134.628 36.6V43H132.808ZM129.328 43.12C128.542 43.12 127.848 42.9867 127.248 42.72C126.662 42.4533 126.208 42.0867 125.888 41.62C125.568 41.14 125.408 40.6 125.408 40C125.408 39.4267 125.542 38.9067 125.808 38.44C126.088 37.9733 126.535 37.6 127.148 37.32C127.775 37.04 128.615 36.9 129.668 36.9H133.028V38.28H129.748C128.788 38.28 128.142 38.44 127.808 38.76C127.475 39.08 127.308 39.4667 127.308 39.92C127.308 40.44 127.515 40.86 127.928 41.18C128.342 41.4867 128.915 41.64 129.648 41.64C130.368 41.64 130.995 41.48 131.528 41.16C132.075 40.84 132.468 40.3733 132.708 39.76L133.088 41.08C132.835 41.7067 132.388 42.2067 131.748 42.58C131.108 42.94 130.302 43.12 129.328 43.12ZM142.641 32.3C143.508 32.3 144.268 32.4667 144.921 32.8C145.588 33.1333 146.108 33.64 146.481 34.32C146.855 35 147.041 35.86 147.041 36.9V43H145.121V37.12C145.121 36.0933 144.868 35.32 144.361 34.8C143.868 34.28 143.168 34.02 142.261 34.02C141.581 34.02 140.988 34.1533 140.481 34.42C139.975 34.6867 139.581 35.08 139.301 35.6C139.035 36.12 138.901 36.7667 138.901 37.54V43H136.981V32.4H138.821V35.26L138.521 34.5C138.868 33.8067 139.401 33.2667 140.121 32.88C140.841 32.4933 141.681 32.3 142.641 32.3Z" fill="white"/>
</svg>
